# xmcd CD database file
#
# Track frame offsets:
#	150
#	17765
#	35117
#	53275
#	72678
#
# Disc length: 1201 seconds
#
# Revision: 2
# Processed by: cddbd v1.5.2PL0 Copyright (c) Steve Scherf et al.
# Submitted via: CDex 1.90
#
DISCID=3f04af05
DTITLE=C.U.Z. - Can't Understand Zero
DYEAR=2010
DGENRE=Country
TTITLE0=Black Label Ft. Bohagon (Radio Clean)
TTITLE1=Black Label Ft. Bohagon
TTITLE2=Fresh
TTITLE3=Sippin On Patron
TTITLE4=Bankroll
EXTD=YEAR: 2010
EXTT0=
EXTT1=
EXTT2=
EXTT3=
EXTT4=
PLAYORDER=
